<svg width="1460" height="470" viewBox="0 0 1460 470" fill="none" xmlns="http://www.w3.org/2000/svg">
<path d="M511.308 290V171.402H536.383V220.335H587.285V171.402H612.302V290H587.285V241.009H536.383V290H511.308ZM632.512 290V201.051H657.182V290H632.512ZM644.905 189.585C641.237 189.585 638.091 188.369 635.466 185.937C632.879 183.466 631.586 180.513 631.586 177.077C631.586 173.679 632.879 170.765 635.466 168.332C638.091 165.862 641.237 164.626 644.905 164.626C648.572 164.626 651.699 165.862 654.286 168.332C656.911 170.765 658.224 173.679 658.224 177.077C658.224 180.513 656.911 183.466 654.286 185.937C651.699 188.369 648.572 189.585 644.905 189.585ZM759.869 201.051L728.772 290H700.976L669.878 201.051H695.937L714.41 264.694H715.337L733.752 201.051H759.869ZM810.164 291.737C801.014 291.737 793.138 289.884 786.537 286.178C779.974 282.433 774.916 277.144 771.364 270.311C767.813 263.439 766.037 255.312 766.037 245.931C766.037 236.781 767.813 228.751 771.364 221.841C774.916 214.93 779.916 209.545 786.363 205.684C792.849 201.823 800.454 199.893 809.179 199.893C815.047 199.893 820.51 200.839 825.568 202.731C830.664 204.584 835.103 207.383 838.887 211.127C842.709 214.872 845.681 219.582 847.805 225.257C849.928 230.894 850.99 237.496 850.99 245.062V251.838H775.881V236.55H827.768C827.768 232.998 826.996 229.851 825.452 227.11C823.907 224.369 821.765 222.227 819.024 220.682C816.321 219.1 813.175 218.308 809.585 218.308C805.84 218.308 802.52 219.177 799.624 220.914C796.767 222.613 794.528 224.91 792.907 227.805C791.285 230.662 790.455 233.847 790.417 237.36V251.896C790.417 256.297 791.227 260.099 792.849 263.304C794.509 266.508 796.844 268.979 799.856 270.716C802.867 272.453 806.438 273.322 810.569 273.322C813.31 273.322 815.819 272.936 818.097 272.164C820.375 271.392 822.325 270.234 823.946 268.689C825.568 267.145 826.803 265.253 827.652 263.014L850.469 264.52C849.31 270.002 846.936 274.789 843.346 278.881C839.794 282.935 835.2 286.101 829.563 288.379C823.965 290.618 817.499 291.737 810.164 291.737ZM931.889 205.51C931.426 200.839 929.438 197.21 925.924 194.623C922.411 192.037 917.643 190.743 911.621 190.743C907.529 190.743 904.073 191.322 901.255 192.481C898.437 193.6 896.275 195.164 894.769 197.171C893.302 199.179 892.569 201.457 892.569 204.005C892.491 206.128 892.935 207.981 893.901 209.564C894.904 211.147 896.275 212.517 898.012 213.675C899.749 214.795 901.757 215.779 904.035 216.629C906.312 217.44 908.745 218.134 911.331 218.714L921.987 221.262C927.16 222.42 931.908 223.964 936.232 225.894C940.556 227.825 944.301 230.199 947.467 233.017C950.632 235.835 953.084 239.156 954.821 242.978C956.597 246.8 957.504 251.181 957.543 256.123C957.504 263.381 955.651 269.674 951.984 275.001C948.355 280.291 943.104 284.402 936.232 287.336C929.399 290.232 921.157 291.679 911.505 291.679C901.931 291.679 893.592 290.212 886.488 287.278C879.423 284.344 873.903 280.001 869.926 274.249C865.988 268.458 863.923 261.296 863.73 252.764H887.994C888.264 256.741 889.403 260.061 891.41 262.725C893.457 265.35 896.178 267.338 899.576 268.689C903.012 270.002 906.892 270.658 911.215 270.658C915.462 270.658 919.149 270.041 922.276 268.805C925.442 267.57 927.893 265.852 929.631 263.651C931.368 261.451 932.237 258.922 932.237 256.065C932.237 253.401 931.445 251.162 929.862 249.348C928.318 247.533 926.04 245.989 923.029 244.715C920.056 243.441 916.408 242.283 912.084 241.24L899.17 237.997C889.171 235.565 881.276 231.762 875.485 226.589C869.694 221.416 866.818 214.448 866.857 205.684C866.818 198.503 868.729 192.23 872.59 186.863C876.489 181.497 881.836 177.308 888.631 174.297C895.426 171.286 903.147 169.78 911.795 169.78C920.597 169.78 928.279 171.286 934.842 174.297C941.444 177.308 946.579 181.497 950.246 186.863C953.914 192.23 955.806 198.445 955.921 205.51H931.889ZM973.946 323.356V201.051H998.268V215.992H999.368C1000.45 213.598 1002.01 211.166 1004.06 208.695C1006.14 206.186 1008.85 204.101 1012.17 202.441C1015.52 200.742 1019.69 199.893 1024.67 199.893C1031.16 199.893 1037.14 201.592 1042.63 204.989C1048.11 208.348 1052.49 213.425 1055.77 220.219C1059.05 226.975 1060.69 235.449 1060.69 245.641C1060.69 255.563 1059.09 263.941 1055.89 270.774C1052.72 277.569 1048.4 282.723 1042.92 286.236C1037.47 289.71 1031.37 291.448 1024.62 291.448C1019.83 291.448 1015.76 290.656 1012.4 289.073C1009.08 287.491 1006.36 285.502 1004.23 283.109C1002.11 280.677 1000.49 278.225 999.368 275.754H998.615V323.356H973.946ZM998.094 245.526C998.094 250.815 998.827 255.428 1000.29 259.366C1001.76 263.304 1003.88 266.373 1006.66 268.574C1009.44 270.735 1012.82 271.816 1016.8 271.816C1020.81 271.816 1024.21 270.716 1026.99 268.516C1029.77 266.276 1031.87 263.188 1033.3 259.25C1034.77 255.274 1035.5 250.699 1035.5 245.526C1035.5 240.391 1034.79 235.874 1033.36 231.975C1031.93 228.076 1029.83 225.026 1027.05 222.825C1024.27 220.625 1020.85 219.524 1016.8 219.524C1012.78 219.524 1009.39 220.586 1006.61 222.709C1003.87 224.833 1001.76 227.844 1000.29 231.743C998.827 235.642 998.094 240.237 998.094 245.526ZM1102.5 291.679C1096.83 291.679 1091.77 290.695 1087.33 288.726C1082.89 286.718 1079.38 283.765 1076.79 279.866C1074.24 275.928 1072.97 271.025 1072.97 265.157C1072.97 260.215 1073.88 256.065 1075.69 252.706C1077.51 249.348 1079.98 246.645 1083.1 244.599C1086.23 242.553 1089.78 241.009 1093.76 239.966C1097.78 238.924 1101.98 238.19 1106.38 237.766C1111.56 237.225 1115.73 236.723 1118.89 236.26C1122.06 235.758 1124.36 235.025 1125.78 234.06C1127.21 233.094 1127.93 231.666 1127.93 229.774V229.427C1127.93 225.759 1126.77 222.922 1124.45 220.914C1122.17 218.907 1118.93 217.903 1114.72 217.903C1110.28 217.903 1106.75 218.887 1104.13 220.856C1101.5 222.787 1099.76 225.219 1098.91 228.153L1076.1 226.3C1077.26 220.895 1079.53 216.223 1082.93 212.286C1086.33 208.309 1090.71 205.259 1096.08 203.136C1101.48 200.974 1107.74 199.893 1114.84 199.893C1119.78 199.893 1124.51 200.472 1129.03 201.63C1133.58 202.788 1137.62 204.584 1141.13 207.016C1144.68 209.448 1147.48 212.575 1149.53 216.397C1151.57 220.181 1152.6 224.717 1152.6 230.006V290H1129.2V277.665H1128.51C1127.08 280.445 1125.17 282.896 1122.77 285.02C1120.38 287.105 1117.5 288.745 1114.14 289.942C1110.79 291.1 1106.91 291.679 1102.5 291.679ZM1109.57 274.654C1113.2 274.654 1116.4 273.94 1119.18 272.511C1121.96 271.044 1124.14 269.075 1125.73 266.605C1127.31 264.134 1128.1 261.335 1128.1 258.208V248.769C1127.33 249.27 1126.27 249.734 1124.92 250.158C1123.6 250.544 1122.12 250.911 1120.46 251.259C1118.8 251.567 1117.14 251.857 1115.48 252.127C1113.82 252.359 1112.31 252.571 1110.96 252.764C1108.06 253.189 1105.54 253.865 1103.37 254.791C1101.21 255.718 1099.53 256.972 1098.34 258.555C1097.14 260.099 1096.54 262.03 1096.54 264.346C1096.54 267.705 1097.76 270.272 1100.19 272.048C1102.66 273.785 1105.79 274.654 1109.57 274.654ZM1211.92 291.737C1202.81 291.737 1194.98 289.807 1188.41 285.946C1181.89 282.047 1176.87 276.642 1173.36 269.732C1169.88 262.821 1168.14 254.868 1168.14 245.873C1168.14 236.762 1169.9 228.77 1173.41 221.899C1176.97 214.988 1182 209.602 1188.53 205.742C1195.05 201.843 1202.81 199.893 1211.81 199.893C1219.57 199.893 1226.36 201.302 1232.19 204.12C1238.02 206.939 1242.64 210.896 1246.03 215.992C1249.43 221.088 1251.3 227.072 1251.65 233.944H1228.37C1227.71 229.504 1225.98 225.933 1223.16 223.231C1220.38 220.489 1216.73 219.119 1212.21 219.119C1208.39 219.119 1205.05 220.161 1202.2 222.246C1199.38 224.292 1197.18 227.284 1195.59 231.222C1194.01 235.16 1193.22 239.928 1193.22 245.526C1193.22 251.201 1193.99 256.027 1195.54 260.003C1197.12 263.979 1199.34 267.01 1202.2 269.095C1205.05 271.179 1208.39 272.222 1212.21 272.222C1215.03 272.222 1217.56 271.643 1219.8 270.485C1222.08 269.326 1223.95 267.647 1225.42 265.446C1226.92 263.207 1227.91 260.524 1228.37 257.397H1251.65C1251.26 264.192 1249.41 270.176 1246.09 275.349C1242.81 280.484 1238.27 284.499 1232.48 287.394C1226.69 290.29 1219.84 291.737 1211.92 291.737ZM1307.98 291.737C1298.83 291.737 1290.96 289.884 1284.35 286.178C1277.79 282.433 1272.73 277.144 1269.18 270.311C1265.63 263.439 1263.85 255.312 1263.85 245.931C1263.85 236.781 1265.63 228.751 1269.18 221.841C1272.73 214.93 1277.73 209.545 1284.18 205.684C1290.67 201.823 1298.27 199.893 1307 199.893C1312.87 199.893 1318.33 200.839 1323.39 202.731C1328.48 204.584 1332.92 207.383 1336.7 211.127C1340.53 214.872 1343.5 219.582 1345.62 225.257C1347.75 230.894 1348.81 237.496 1348.81 245.062V251.838H1273.7V236.55H1325.59C1325.59 232.998 1324.81 229.851 1323.27 227.11C1321.73 224.369 1319.58 222.227 1316.84 220.682C1314.14 219.1 1310.99 218.308 1307.4 218.308C1303.66 218.308 1300.34 219.177 1297.44 220.914C1294.59 222.613 1292.35 224.91 1290.72 227.805C1289.1 230.662 1288.27 233.847 1288.23 237.36V251.896C1288.23 256.297 1289.05 260.099 1290.67 263.304C1292.33 266.508 1294.66 268.979 1297.67 270.716C1300.68 272.453 1304.26 273.322 1308.39 273.322C1311.13 273.322 1313.64 272.936 1315.92 272.164C1318.19 271.392 1320.14 270.234 1321.76 268.689C1323.39 267.145 1324.62 265.253 1325.47 263.014L1348.29 264.52C1347.13 270.002 1344.75 274.789 1341.16 278.881C1337.61 282.935 1333.02 286.101 1327.38 288.379C1321.78 290.618 1315.32 291.737 1307.98 291.737Z" fill="white"/>
<rect x="178" y="132" width="238" height="238" rx="49" fill="#101010"/>
<path d="M296.769 220.159L323.279 235.465V266.076L296.769 281.381L270.26 266.076V235.465L296.769 220.159Z" fill="white"/>
<path d="M237.996 220.159L264.506 235.465V266.076L237.996 281.381L211.487 266.076V235.465L237.996 220.159Z" fill="white"/>
<path d="M355.542 220.159L382.051 235.465V266.076L355.542 281.381L329.032 266.076V235.465L355.542 220.159Z" fill="white"/>
<path d="M326.155 171.182L352.665 186.488V217.099L326.155 232.404L299.646 217.099V186.488L326.155 171.182Z" fill="white"/>
<path d="M267.383 171.182L293.892 186.488V217.099L267.383 232.404L240.873 217.099V186.488L267.383 171.182Z" fill="white"/>
<path d="M267.383 269.137L293.892 284.442V315.053L267.383 330.358L240.873 315.053V284.442L267.383 269.137Z" fill="white"/>
<path d="M323.707 269.137L350.216 284.442V315.053L323.707 330.358L297.197 315.053V284.442L323.707 269.137Z" fill="white"/>
</svg>
